<svg width="150" height="32" viewBox="0 0 150 32" fill="none" xmlns="http://www.w3.org/2000/svg">
<path d="M10.5929 5.2962L15.8891 0L21.1853 5.2962L15.8891 10.5924L10.5929 5.2962Z" fill="#F28A20"/>
<path d="M18.0074 12.6243L23.3036 7.32812L31.7777 15.8023L26.4815 21.0985L18.0074 12.6243Z" fill="#F2F4F5"/>
<path d="M13.77 12.6246L8.47349 7.32812L0 15.8027L15.8889 31.6916L24.3629 23.2181L19.0659 17.9211L15.8889 21.0992L10.5919 15.8027L13.77 12.6246Z" fill="#F2F4F5"/>
<path d="M64.7535 29.7192H61.7795V24.0605H64.5899C65.1012 24.0605 65.4756 24.1679 65.7137 24.3832C65.9518 24.5985 66.0714 24.9567 66.0714 25.4591C66.0714 25.6994 66.0547 25.898 66.023 26.0532C65.9901 26.209 65.9212 26.3464 65.8143 26.4637C65.7081 26.5817 65.5496 26.6774 65.3393 26.7497C65.5902 26.8175 65.7804 26.9071 65.9106 27.0195C66.0402 27.133 66.1281 27.2732 66.1737 27.44C66.2193 27.608 66.2421 27.8267 66.2421 28.0942C66.2421 28.6305 66.1287 29.0349 65.9011 29.3092C65.6736 29.5823 65.2909 29.7192 64.7535 29.7192ZM62.426 24.6196V26.5305H64.2801C64.5727 26.5305 64.8008 26.5016 64.9632 26.4432C65.1262 26.3859 65.2425 26.2835 65.3126 26.1378C65.3821 25.9914 65.4172 25.7828 65.4172 25.5125C65.4172 25.1665 65.3543 24.9317 65.228 24.8065C65.1017 24.6819 64.8636 24.6196 64.5137 24.6196H62.426ZM62.426 27.0818V29.1529H64.225C64.5037 29.1529 64.7246 29.1417 64.8864 29.1201C65.0489 29.0978 65.1824 29.0522 65.2864 28.9832C65.3916 28.9148 65.4678 28.8124 65.5162 28.6772C65.564 28.5421 65.5879 28.3579 65.5879 28.126C65.5879 27.8183 65.5568 27.5914 65.4945 27.445C65.4311 27.2987 65.3259 27.2019 65.1774 27.1541C65.0294 27.1057 64.8024 27.0818 64.497 27.0818H62.426Z" fill="#F28A20"/>
<path d="M69.777 29.0888L71.1304 25.8184H72.1212V29.7764H71.5054V26.3391L70.049 29.7764H69.5033L68.0563 26.3391V29.7764H67.44V25.8184H68.4213L69.777 29.0888Z" fill="#F28A20"/>
<path d="M76.8355 27.9506H73.9C73.9033 28.261 73.9222 28.5068 73.9556 28.6904C73.9895 28.8734 74.0474 29.0192 74.1308 29.1266C74.2137 29.2345 74.3289 29.309 74.4769 29.3524C74.6243 29.3958 74.8212 29.4169 75.0665 29.4169C75.4014 29.4169 75.649 29.398 75.8086 29.3596C75.9683 29.3218 76.0768 29.2562 76.1335 29.1627C76.1908 29.0693 76.2197 28.9268 76.2197 28.7366V28.6092H76.8355C76.8355 28.973 76.7705 29.2478 76.6403 29.4336C76.5107 29.6194 76.3221 29.7424 76.0756 29.8025C75.8292 29.8631 75.4926 29.8926 75.0665 29.8926C74.6015 29.8926 74.2421 29.8325 73.9868 29.7118C73.7325 29.5916 73.5512 29.3841 73.4438 29.0904C73.337 28.7967 73.2836 28.3772 73.2836 27.8309C73.2836 27.4388 73.3175 27.1117 73.386 26.8502C73.4544 26.5893 73.5584 26.3818 73.6986 26.2272C73.8388 26.0731 74.0201 25.9618 74.2421 25.8934C74.4635 25.8255 74.7366 25.791 75.0593 25.791C75.6929 25.791 76.148 25.9306 76.4228 26.2093C76.6976 26.4886 76.8355 26.9681 76.8355 27.6479V27.9506ZM76.2197 27.4899C76.2197 27.1806 76.1836 26.9392 76.1118 26.764C76.04 26.5887 75.9204 26.4619 75.7535 26.384C75.5861 26.3061 75.3547 26.2672 75.0593 26.2672C74.7622 26.2672 74.5314 26.3067 74.3667 26.3863C74.2009 26.4664 74.0836 26.5943 74.0146 26.7701C73.9456 26.9459 73.9094 27.1862 73.9072 27.4899H76.2197Z" fill="#F28A20"/>
<path d="M80.8407 28.3822H81.4381C81.422 28.691 81.3786 28.9435 81.308 29.141C81.2384 29.3385 81.1361 29.4909 81.0026 29.5994C80.869 29.7079 80.696 29.7835 80.4852 29.8275C80.2744 29.8709 80.0062 29.8926 79.6802 29.8926C79.3326 29.8926 79.0477 29.8581 78.8263 29.7902C78.6044 29.7218 78.428 29.6111 78.2967 29.4576C78.1654 29.3035 78.0714 29.0976 78.0136 28.8395C77.9557 28.5808 77.9274 28.2498 77.9274 27.8454C77.9274 27.318 77.9785 26.9069 78.082 26.611C78.1855 26.3162 78.3613 26.1059 78.6105 25.9802C78.8597 25.8539 79.2102 25.791 79.663 25.791C80.0324 25.791 80.3389 25.8261 80.582 25.8967C80.8257 25.9674 81.0137 26.0931 81.1472 26.2739C81.2818 26.4547 81.3558 26.7033 81.3675 27.021V27.15H80.7778C80.7778 26.9225 80.7494 26.7484 80.6949 26.6282C80.6398 26.5075 80.533 26.4196 80.3745 26.3646C80.216 26.3089 79.979 26.2817 79.663 26.2817C79.347 26.2817 79.1134 26.3206 78.9604 26.3996C78.808 26.478 78.7023 26.6249 78.645 26.8396C78.5871 27.0538 78.5582 27.3842 78.5582 27.8309C78.5582 28.2682 78.5899 28.5981 78.6539 28.82C78.7184 29.0426 78.828 29.1944 78.9843 29.2773C79.1395 29.3608 79.3721 29.4019 79.6802 29.4019C79.9239 29.4019 80.118 29.3869 80.2627 29.3569C80.4073 29.3268 80.518 29.2745 80.5976 29.2011C80.6755 29.1271 80.7322 29.0281 80.7667 28.9035C80.8017 28.78 80.8268 28.6059 80.8407 28.3822Z" fill="#F28A20"/>
<path d="M83.5108 26.3018H82.1017V25.8184H85.5424V26.3018H84.1344V29.7764H83.5108V26.3018Z" fill="#F28A20"/>
<path d="M89.812 27.9506H86.8764C86.8798 28.261 86.8992 28.5068 86.9326 28.6904C86.9665 28.8734 87.0238 29.0192 87.1078 29.1266C87.1902 29.2345 87.3053 29.309 87.4533 29.3524C87.6007 29.3958 87.7976 29.4169 88.043 29.4169C88.3779 29.4169 88.6254 29.398 88.7851 29.3596C88.9447 29.3218 89.0537 29.2562 89.1099 29.1627C89.1678 29.0693 89.1962 28.9268 89.1962 28.7366V28.6092H89.812C89.812 28.973 89.7469 29.2478 89.6173 29.4336C89.4871 29.6194 89.2991 29.7424 89.0526 29.8025C88.8056 29.8631 88.4691 29.8926 88.043 29.8926C87.5779 29.8926 87.2185 29.8325 86.9632 29.7118C86.709 29.5916 86.5276 29.3841 86.4208 29.0904C86.3134 28.7967 86.26 28.3772 86.26 27.8309C86.26 27.4388 86.294 27.1117 86.3624 26.8502C86.4308 26.5893 86.5348 26.3818 86.675 26.2272C86.8152 26.0731 86.9966 25.9618 87.2185 25.8934C87.4399 25.8255 87.7131 25.791 88.0357 25.791C88.6699 25.791 89.1244 25.9306 89.3992 26.2093C89.674 26.4886 89.812 26.9681 89.812 27.6479V27.9506ZM89.1962 27.4899C89.1962 27.1806 89.16 26.9392 89.0882 26.764C89.0165 26.5887 88.8969 26.4619 88.73 26.384C88.5625 26.3061 88.3311 26.2672 88.0357 26.2672C87.7387 26.2672 87.5084 26.3067 87.3437 26.3863C87.1774 26.4664 87.06 26.5943 86.9916 26.7701C86.922 26.9459 86.8859 27.1862 86.8836 27.4899H89.1962Z" fill="#F28A20"/>
<path d="M93.4869 26.574C93.5976 26.3626 93.7501 26.2068 93.9442 26.1056C94.1389 26.0049 94.3998 25.9548 94.7247 25.9548C95.207 25.9548 95.5786 26.0193 95.8412 26.149C96.1032 26.2791 96.2857 26.4799 96.3869 26.7531C96.4882 27.0257 96.5388 27.3989 96.5388 27.8724C96.5388 28.239 96.5149 28.5444 96.4665 28.7891C96.4186 29.0339 96.3302 29.2403 96.2022 29.4083C96.0737 29.5757 95.8924 29.702 95.6559 29.786C95.4201 29.8706 95.1113 29.9123 94.7319 29.9123C94.3553 29.9123 94.0488 29.8706 93.8152 29.7866C93.5815 29.7031 93.4013 29.5768 93.2728 29.4083C93.1459 29.2386 93.0592 29.0311 93.0124 28.7847C92.9657 28.5377 92.9418 28.2339 92.9418 27.8724V26.6479C92.9418 25.334 93.4892 24.6764 94.5845 24.6764C94.9266 24.6764 95.1692 24.6692 95.3121 24.6559C95.4557 24.6425 95.5491 24.6141 95.5925 24.5719C95.637 24.5296 95.6587 24.4561 95.6587 24.3516H96.1816C96.1816 24.5713 96.136 24.7382 96.0448 24.8511C95.9536 24.9646 95.81 25.0419 95.6153 25.0825C95.4212 25.1243 95.1525 25.1448 94.8104 25.1448C94.5211 25.1448 94.2813 25.1827 94.0911 25.2594C93.8997 25.3351 93.7523 25.4786 93.6455 25.6889C93.5403 25.8992 93.4869 26.194 93.4869 26.574ZM94.7475 29.4216C95.0763 29.4216 95.3233 29.3727 95.4874 29.2742C95.6526 29.1758 95.7633 29.0189 95.8206 28.8019C95.8785 28.5855 95.9079 28.2762 95.9079 27.8724C95.9079 27.4791 95.8762 27.182 95.8123 26.9812C95.7488 26.7798 95.6348 26.6402 95.4701 26.5623C95.3038 26.4838 95.0557 26.4455 94.7247 26.4455C94.4104 26.4455 94.1723 26.4855 94.0099 26.5656C93.848 26.6463 93.7345 26.7887 93.6694 26.9917C93.6054 27.1953 93.5726 27.4913 93.5726 27.8801C93.5726 28.2818 93.6021 28.5905 93.6622 28.8058C93.7217 29.0205 93.8346 29.1774 94.0021 29.2748C94.1684 29.3727 94.4171 29.4216 94.7475 29.4216Z" fill="#F28A20"/>
<path d="M97.7252 25.8184H98.341V27.4121H99.8441C100.638 27.4121 101.036 27.8071 101.036 28.5982C101.036 29.0037 100.926 29.303 100.705 29.4949C100.486 29.6879 100.198 29.7842 99.8441 29.7842H97.7252V25.8184ZM99.6266 29.2935C99.9165 29.2935 100.12 29.244 100.234 29.1461C100.348 29.0476 100.404 28.8652 100.404 28.5982C100.404 28.4135 100.379 28.2705 100.33 28.1693C100.28 28.068 100.198 27.9968 100.084 27.9562C99.971 27.9156 99.8124 27.895 99.6105 27.895H98.341V29.2935H99.6266ZM101.808 25.8184H102.43V29.7842H101.808V25.8184Z" fill="#F28A20"/>
<path d="M104.539 26.3018H103.131V25.8184H106.572V26.3018H105.163V29.7764H104.539V26.3018Z" fill="#F28A20"/>
<path d="M107.413 25.8184H108.035V27.4121H109.532C110.326 27.4121 110.723 27.8071 110.723 28.5982C110.723 29.0037 110.614 29.3019 110.395 29.491C110.177 29.6813 109.888 29.7764 109.532 29.7764H107.413V25.8184ZM109.322 29.2935C109.608 29.2935 109.808 29.2435 109.922 29.1444C110.036 29.046 110.094 28.8635 110.094 28.5982C110.094 28.3261 110.036 28.1414 109.921 28.043C109.807 27.9445 109.6 27.895 109.299 27.895H108.035V29.2935H109.322Z" fill="#F28A20"/>
<path d="M117.109 29.7764H116.485V26.294H114.739V28.6365C114.739 29.3964 114.412 29.7764 113.759 29.7764H113.456V29.2857H113.55C113.781 29.2818 113.934 29.2407 114.007 29.1617C114.081 29.0821 114.118 28.9019 114.118 28.6199V25.8184H117.109V29.7764Z" fill="#F28A20"/>
<path d="M120.747 25.8184H121.379L120.124 30.3054C120.031 30.6392 119.929 30.8962 119.817 31.0765C119.706 31.2573 119.577 31.3846 119.429 31.4581C119.282 31.531 119.101 31.5677 118.886 31.5677C118.751 31.5677 118.635 31.5521 118.536 31.5215V31.0403C118.612 31.0598 118.689 31.0692 118.767 31.0692C118.931 31.067 119.058 31.037 119.147 30.9786C119.235 30.9213 119.316 30.8039 119.391 30.627C119.465 30.4495 119.556 30.1664 119.664 29.7781H119.399L117.912 25.8184H118.536L119.812 29.3375L120.747 25.8184Z" fill="#F28A20"/>
<path d="M125.442 25.8184V29.7836H124.819V27.7365H124.788C124.693 27.8694 124.57 27.9579 124.416 28.0018C124.263 28.0463 123.986 28.0686 123.588 28.0686C123.292 28.0686 123.046 28.033 122.852 27.9623C122.657 27.8917 122.509 27.7743 122.411 27.6102C122.312 27.4461 122.263 27.2286 122.263 26.9582V25.8184H122.887V26.8219C122.887 27.0378 122.911 27.1985 122.958 27.3048C123.007 27.4105 123.092 27.4822 123.214 27.5206C123.336 27.559 123.519 27.5779 123.767 27.5779C124.233 27.5779 124.584 27.5178 124.819 27.3971V25.8184H125.442Z" fill="#F28A20"/>
<path d="M132.491 29.7764H126.774V25.8184H127.398V29.2935H129.322V25.8184H129.945V29.2935H131.867V25.8184H132.491V29.7764Z" fill="#F28A20"/>
<path d="M133.776 29.7764V25.8184H134.393V29.0588L136.487 25.8184H137.243V29.7764H136.626V26.5582L134.548 29.7764H134.393H133.776Z" fill="#F28A20"/>
<path d="M140.833 29.0888L142.187 25.8184H143.177V29.7764H142.562V26.3391L141.104 29.7764H140.559L139.111 26.3391V29.7764H138.496V25.8184H139.476L140.833 29.0888Z" fill="#F28A20"/>
<path d="M144.415 29.7764V25.8184H145.031V29.0588L147.126 25.8184H147.881V29.7764H147.265V26.5582L145.186 29.7764H145.031H144.415Z" fill="#F28A20"/>
<path d="M150 24.0605L149.914 28.1627H149.354L149.283 24.0605H150ZM149.962 29.7192H149.316V28.9482H149.962V29.7192Z" fill="#F28A20"/>
<path d="M149.999 10.2812H146.005L140.845 13.9428L135.685 10.2812H131.69V11.1135L138.181 15.7741L131.69 20.2684V21.1006H135.685L140.845 17.6049L146.005 21.1006H149.999V20.2684L143.508 15.7741L149.999 11.1135V10.2812Z" fill="#F2F4F5"/>
<path d="M53.792 13.2775V10.2812H36.3149C35.4871 10.2812 34.8168 10.9521 34.8168 11.7794V19.6025C34.8168 20.4286 35.4849 21.0979 36.3093 21.1006H53.792V18.1044H37.8125V13.2775H53.792Z" fill="#F2F4F5"/>
<path d="M129.691 12.7779V10.2812H112.213C111.387 10.2812 110.715 10.9521 110.715 11.7794V19.6025H110.717C110.717 20.4286 111.384 21.0978 112.209 21.1001L129.691 21.1006V18.6034H113.712V16.9395H127.693V14.4423H113.712V12.7779H129.691Z" fill="#F2F4F5"/>
<path d="M78.2604 10.2812V17.5131L64.2785 10.2812H63.2793C62.4527 10.2812 61.7835 10.951 61.7818 11.7766V21.1012H64.778V13.6101L64.7674 13.5417L78.7594 21.1006H79.7579V21.1001C80.5857 21.1006 81.256 20.4303 81.256 19.6025V10.2812H78.2604Z" fill="#F2F4F5"/>
<path d="M106.725 10.2812H105.723L98.7313 17.6127L91.7415 10.2812H90.7424C89.914 10.2812 89.2437 10.9521 89.2437 11.7794V21.1006H92.2405V15.1077L98.2323 21.1001H99.2309L105.223 15.1077V21.1006H108.22V11.7794C108.22 10.9527 107.55 10.2824 106.725 10.2812Z" fill="#F2F4F5"/>
<path d="M86.7495 10.2812H83.7527V21.1006H86.7495V10.2812Z" fill="#F2F4F5"/>
<path d="M59.2847 10.2812H56.2885V21.1006H59.2847V10.2812Z" fill="#F2F4F5"/>
</svg>
